<svg width="20" height="21" viewBox="0 0 20 21" fill="none" xmlns="http://www.w3.org/2000/svg">
<path fill-rule="evenodd" clip-rule="evenodd" d="M5.91593 1.87878H14.0834C14.9309 1.87878 15.5143 1.87878 16.0051 2.04878C16.4637 2.21102 16.8788 2.47673 17.2181 2.82531C17.5575 3.17389 17.8119 3.59596 17.9618 4.05878C18.1251 4.55628 18.1243 5.14795 18.1243 6.02545V17.8155C18.1243 19.0371 16.6851 19.7638 15.7376 18.8963C15.7072 18.8672 15.6668 18.851 15.6247 18.851C15.5826 18.851 15.5422 18.8672 15.5118 18.8963L15.1084 19.2646C14.3351 19.973 13.1634 19.973 12.3901 19.2646C12.2501 19.1339 12.0658 19.0612 11.8743 19.0612C11.6828 19.0612 11.4984 19.1339 11.3584 19.2646C10.5851 19.973 9.41343 19.973 8.6401 19.2646C8.50013 19.1339 8.31577 19.0612 8.12427 19.0612C7.93277 19.0612 7.7484 19.1339 7.60843 19.2646C6.8351 19.973 5.66343 19.973 4.8901 19.2646L4.4876 18.8963C4.45716 18.867 4.41654 18.8506 4.37427 18.8506C4.332 18.8506 4.29137 18.867 4.26093 18.8963C3.31343 19.763 1.87427 19.0371 1.87427 17.8155V6.02628C1.87427 5.14795 1.87427 4.55628 2.03677 4.05878C2.18661 3.59596 2.44107 3.17389 2.7804 2.82531C3.11973 2.47673 3.53481 2.21102 3.99343 2.04878C4.4851 1.87795 5.06843 1.87878 5.91593 1.87878ZM6.03677 3.12878C5.01927 3.12878 4.66843 3.13712 4.40343 3.22962C4.12667 3.32884 3.87645 3.49041 3.67212 3.70182C3.4678 3.91322 3.31484 4.16881 3.2251 4.44878C3.1326 4.73045 3.1251 5.10212 3.1251 6.14545V17.8155C3.1251 17.9155 3.17427 17.9755 3.23677 18.0046C3.26528 18.0182 3.29707 18.0234 3.32843 18.0196C3.36216 18.0139 3.39329 17.9979 3.4176 17.9738C3.67836 17.7337 4.01984 17.6005 4.37427 17.6005C4.7287 17.6005 5.07017 17.7337 5.33093 17.9738L5.73343 18.3421C5.8734 18.4728 6.05777 18.5455 6.24927 18.5455C6.44077 18.5455 6.62513 18.4728 6.7651 18.3421C7.13547 18.0009 7.62065 17.8114 8.12427 17.8114C8.62788 17.8114 9.11307 18.0009 9.48343 18.3421C9.6234 18.4728 9.80777 18.5455 9.99927 18.5455C10.1908 18.5455 10.3751 18.4728 10.5151 18.3421C10.8855 18.0009 11.3707 17.8114 11.8743 17.8114C12.3779 17.8114 12.8631 18.0009 13.2334 18.3421C13.3734 18.4728 13.5578 18.5455 13.7493 18.5455C13.9408 18.5455 14.1251 18.4728 14.2651 18.3421L14.6676 17.9738C14.9284 17.7337 15.2698 17.6005 15.6243 17.6005C15.9787 17.6005 16.3202 17.7337 16.5809 17.9738C16.6168 18.0071 16.6476 18.0171 16.6709 18.0196C16.702 18.0232 16.7335 18.018 16.7618 18.0046C16.8243 17.9755 16.8743 17.9146 16.8743 17.8155V6.14545C16.8743 5.10212 16.8659 4.73045 16.7743 4.44795C16.6842 4.16795 16.531 3.91242 16.3264 3.70116C16.1217 3.48989 15.8712 3.32854 15.5943 3.22962C15.3301 3.13795 14.9793 3.12962 13.9618 3.12962L6.03677 3.12878ZM5.20843 7.08712C5.20843 6.92136 5.27428 6.76239 5.39149 6.64518C5.5087 6.52797 5.66767 6.46212 5.83343 6.46212H6.2501C6.41586 6.46212 6.57483 6.52797 6.69204 6.64518C6.80925 6.76239 6.8751 6.92136 6.8751 7.08712C6.8751 7.25288 6.80925 7.41185 6.69204 7.52906C6.57483 7.64627 6.41586 7.71212 6.2501 7.71212H5.83343C5.66767 7.71212 5.5087 7.64627 5.39149 7.52906C5.27428 7.41185 5.20843 7.25288 5.20843 7.08712ZM8.1251 7.08712C8.1251 6.92136 8.19095 6.76239 8.30816 6.64518C8.42537 6.52797 8.58434 6.46212 8.7501 6.46212H14.1668C14.3325 6.46212 14.4915 6.52797 14.6087 6.64518C14.7259 6.76239 14.7918 6.92136 14.7918 7.08712C14.7918 7.25288 14.7259 7.41185 14.6087 7.52906C14.4915 7.64627 14.3325 7.71212 14.1668 7.71212H8.7501C8.58434 7.71212 8.42537 7.64627 8.30816 7.52906C8.19095 7.41185 8.1251 7.25288 8.1251 7.08712ZM5.20843 10.0038C5.20843 9.83802 5.27428 9.67905 5.39149 9.56184C5.5087 9.44463 5.66767 9.37878 5.83343 9.37878H6.2501C6.41586 9.37878 6.57483 9.44463 6.69204 9.56184C6.80925 9.67905 6.8751 9.83802 6.8751 10.0038C6.8751 10.1695 6.80925 10.3285 6.69204 10.4457C6.57483 10.5629 6.41586 10.6288 6.2501 10.6288H5.83343C5.66767 10.6288 5.5087 10.5629 5.39149 10.4457C5.27428 10.3285 5.20843 10.1695 5.20843 10.0038ZM8.1251 10.0038C8.1251 9.83802 8.19095 9.67905 8.30816 9.56184C8.42537 9.44463 8.58434 9.37878 8.7501 9.37878H14.1668C14.3325 9.37878 14.4915 9.44463 14.6087 9.56184C14.7259 9.67905 14.7918 9.83802 14.7918 10.0038C14.7918 10.1695 14.7259 10.3285 14.6087 10.4457C14.4915 10.5629 14.3325 10.6288 14.1668 10.6288H8.7501C8.58434 10.6288 8.42537 10.5629 8.30816 10.4457C8.19095 10.3285 8.1251 10.1695 8.1251 10.0038ZM5.20843 12.9205C5.20843 12.7547 5.27428 12.5957 5.39149 12.4785C5.5087 12.3613 5.66767 12.2955 5.83343 12.2955H6.2501C6.41586 12.2955 6.57483 12.3613 6.69204 12.4785C6.80925 12.5957 6.8751 12.7547 6.8751 12.9205C6.8751 13.0862 6.80925 13.2452 6.69204 13.3624C6.57483 13.4796 6.41586 13.5455 6.2501 13.5455H5.83343C5.66767 13.5455 5.5087 13.4796 5.39149 13.3624C5.27428 13.2452 5.20843 13.0862 5.20843 12.9205ZM8.1251 12.9205C8.1251 12.7547 8.19095 12.5957 8.30816 12.4785C8.42537 12.3613 8.58434 12.2955 8.7501 12.2955H14.1668C14.3325 12.2955 14.4915 12.3613 14.6087 12.4785C14.7259 12.5957 14.7918 12.7547 14.7918 12.9205C14.7918 13.0862 14.7259 13.2452 14.6087 13.3624C14.4915 13.4796 14.3325 13.5455 14.1668 13.5455H8.7501C8.58434 13.5455 8.42537 13.4796 8.30816 13.3624C8.19095 13.2452 8.1251 13.0862 8.1251 12.9205Z" fill="black"/>
</svg>
