<svg width="20" height="21" viewBox="0 0 20 21" fill="none" xmlns="http://www.w3.org/2000/svg">
<path fill-rule="evenodd" clip-rule="evenodd" d="M10.4692 3.50378H9.53091L8.99341 5.65212L8.45425 5.81878C8.14007 5.9156 7.83567 6.04171 7.54508 6.19545L7.04591 6.45962L5.14591 5.31962L4.48258 5.98378L5.62258 7.88378L5.35841 8.38212C5.20438 8.67268 5.07799 8.97707 4.98091 9.29128L4.81508 9.83045L2.66675 10.368V11.3063L4.81508 11.8438L4.98175 12.3829C5.07786 12.6985 5.20341 13.0016 5.35841 13.2921L5.62258 13.7913L4.48258 15.6913L5.14675 16.3546L7.04675 15.2146L7.54508 15.4788C7.83564 15.6332 8.13869 15.7591 8.45425 15.8563L8.99341 16.0221L9.53091 18.1705H10.4692L11.0067 16.0221L11.5459 15.8554C11.8601 15.7586 12.1645 15.6325 12.4551 15.4788L12.9542 15.2146L14.8542 16.3546L15.5176 15.6904L14.3776 13.7905L14.6417 13.2921C14.7962 13.0016 14.922 12.6985 15.0192 12.3829L15.1851 11.8438L17.3334 11.3063V10.368L15.1851 9.83045L15.0184 9.29128C14.9216 8.9771 14.7955 8.67271 14.6417 8.38212L14.3776 7.88295L15.5176 5.98295L14.8534 5.31962L12.9534 6.45962L12.4551 6.19545C12.1645 6.04142 11.8601 5.91503 11.5459 5.81795L11.0067 5.65212L10.4692 3.50378ZM12.9234 5.31212L14.4509 4.39545C14.6102 4.29992 14.7968 4.26033 14.9812 4.28298C15.1655 4.30563 15.337 4.38921 15.4684 4.52045L16.3167 5.36878C16.448 5.5002 16.5316 5.6717 16.5542 5.85604C16.5769 6.04038 16.5373 6.22701 16.4417 6.38628L15.5251 7.91378C15.7084 8.25823 15.8584 8.61934 15.9751 8.99712L17.7026 9.42962C17.8828 9.47476 18.0427 9.57882 18.157 9.72528C18.2713 9.87173 18.3334 10.0522 18.3334 10.238V11.4363C18.3334 11.6221 18.2713 11.8025 18.157 11.949C18.0427 12.0954 17.8828 12.1995 17.7026 12.2446L15.9751 12.6771C15.8584 13.0549 15.7084 13.416 15.5251 13.7605L16.4417 15.288C16.5373 15.4472 16.5769 15.6339 16.5542 15.8182C16.5316 16.0025 16.448 16.174 16.3167 16.3055L15.4684 17.1538C15.337 17.285 15.1655 17.3686 14.9812 17.3913C14.7968 17.4139 14.6102 17.3743 14.4509 17.2788L12.9234 16.3621C12.579 16.5455 12.2179 16.6955 11.8401 16.8121L11.4076 18.5396C11.3624 18.7198 11.2584 18.8798 11.1119 18.9941C10.9655 19.1084 10.785 19.1704 10.5992 19.1705H9.40091C9.21514 19.1704 9.0347 19.1084 8.88824 18.9941C8.74179 18.8798 8.63772 18.7198 8.59258 18.5396L8.16008 16.8121C7.78566 16.6964 7.42295 16.5457 7.07675 16.3621L5.54925 17.2788C5.38997 17.3743 5.20335 17.4139 5.019 17.3913C4.83466 17.3686 4.66317 17.285 4.53175 17.1538L3.68341 16.3055C3.55217 16.174 3.46859 16.0025 3.44594 15.8182C3.4233 15.6339 3.46288 15.4472 3.55841 15.288L4.47508 13.7605C4.29145 13.4142 4.14079 13.0515 4.02508 12.6771L2.29758 12.2446C2.11751 12.1995 1.95766 12.0956 1.84338 11.9493C1.7291 11.803 1.66694 11.6227 1.66675 11.4371V10.2388C1.66675 10.053 1.72883 9.87256 1.84313 9.72611C1.95742 9.57966 2.11738 9.47559 2.29758 9.43045L4.02508 8.99795C4.14175 8.62017 4.29175 8.25906 4.47508 7.91462L3.55841 6.38712C3.46288 6.22784 3.4233 6.04122 3.44594 5.85687C3.46859 5.67253 3.55217 5.50103 3.68341 5.36962L4.53175 4.52045C4.66317 4.38921 4.83466 4.30563 5.019 4.28298C5.20335 4.26033 5.38997 4.29992 5.54925 4.39545L7.07675 5.31212C7.42119 5.12878 7.7823 4.97878 8.16008 4.86212L8.59258 3.13462C8.63769 2.95455 8.74163 2.7947 8.88791 2.68042C9.0342 2.56614 9.21445 2.50397 9.40008 2.50378H10.5984C10.7842 2.50379 10.9646 2.56587 11.1111 2.68016C11.2575 2.79446 11.3616 2.95441 11.4067 3.13462L11.8392 4.86212C12.217 4.97878 12.5781 5.12878 12.9226 5.31212H12.9234ZM10.0001 13.1705C10.6189 13.1705 11.2124 12.9246 11.65 12.487C12.0876 12.0494 12.3334 11.456 12.3334 10.8371C12.3334 10.2183 12.0876 9.62479 11.65 9.1872C11.2124 8.74962 10.6189 8.50378 10.0001 8.50378C9.38124 8.50378 8.78775 8.74962 8.35016 9.1872C7.91258 9.62479 7.66675 10.2183 7.66675 10.8371C7.66675 11.456 7.91258 12.0494 8.35016 12.487C8.78775 12.9246 9.38124 13.1705 10.0001 13.1705ZM10.0001 14.1705C9.11603 14.1705 8.26818 13.8193 7.64306 13.1941C7.01794 12.569 6.66675 11.7212 6.66675 10.8371C6.66675 9.95306 7.01794 9.10522 7.64306 8.48009C8.26818 7.85497 9.11603 7.50378 10.0001 7.50378C10.8841 7.50378 11.732 7.85497 12.3571 8.48009C12.9822 9.10522 13.3334 9.95306 13.3334 10.8371C13.3334 11.7212 12.9822 12.569 12.3571 13.1941C11.732 13.8193 10.8841 14.1705 10.0001 14.1705Z" fill="black"/>
</svg>
