<svg width="20" height="21" viewBox="0 0 20 21" fill="none" xmlns="http://www.w3.org/2000/svg">
<path d="M5.62496 3.33215V5.20715M14.375 3.33215V5.20715M2.49829 16.4572V7.07965C2.49829 6.58237 2.69584 6.10546 3.04747 5.75383C3.3991 5.4022 3.87601 5.20465 4.37329 5.20465H15.6233C16.1206 5.20465 16.5975 5.4022 16.9491 5.75383C17.3007 6.10546 17.4983 6.58237 17.4983 7.07965V16.4555M17.4983 16.4555C17.4983 16.9528 17.3007 17.4297 16.9491 17.7813C16.5975 18.1329 16.1206 18.3305 15.6233 18.3305H4.37329C3.87601 18.3305 3.3991 18.1329 3.04747 17.7813C2.69584 17.4297 2.49829 16.9528 2.49829 16.4555V10.2055C2.49829 9.7082 2.69584 9.23129 3.04747 8.87966C3.3991 8.52803 3.87601 8.33049 4.37329 8.33049H15.6233C16.1206 8.33049 16.5975 8.52803 16.9491 8.87966C17.3007 9.23129 17.4983 9.7082 17.4983 10.2055V16.4555ZM11.8733 11.4555H13.7483M6.24829 13.3305H9.99829M9.99996 11.4555H10.0041V11.4605H9.99996V11.4555ZM9.99912 15.2055H10.0041V15.2105H9.99912V15.2055ZM8.12412 15.2063H8.12829V15.2113H8.12496V15.2063H8.12412ZM6.24912 15.2063H6.25329V15.2105H6.24829V15.2063H6.24912ZM11.8741 13.3338H11.8783V13.338H11.8741V13.3338ZM11.8741 15.2063H11.8791V15.2113H11.8741V15.2063ZM13.7491 13.333H13.7541V13.3372H13.75L13.7491 13.333Z" stroke="white" stroke-width="1.5" stroke-linecap="round" stroke-linejoin="round"/>
</svg>
