<svg width="20" height="21" viewBox="0 0 20 21" fill="none" xmlns="http://www.w3.org/2000/svg">
<path fill-rule="evenodd" clip-rule="evenodd" d="M9.16659 16.6705C9.16659 17.5909 8.42039 18.3371 7.49992 18.3371C6.57944 18.3371 5.83325 17.5909 5.83325 16.6705C5.83325 15.75 6.57944 15.0038 7.49992 15.0038C8.42039 15.0038 9.16659 15.75 9.16659 16.6705ZM15.8333 16.6705C15.8333 17.5909 15.0871 18.3371 14.1666 18.3371C13.2461 18.3371 12.4999 17.5909 12.4999 16.6705C12.4999 15.75 13.2461 15.0038 14.1666 15.0038C15.0871 15.0038 15.8333 15.75 15.8333 16.6705Z" fill="black"/>
<path fill-rule="evenodd" clip-rule="evenodd" d="M2.5 4.17049C2.5 3.71025 2.8731 3.33716 3.33333 3.33716H3.63366C4.82536 3.33716 5.8514 4.17831 6.08511 5.34687L6.18317 5.83716H15.4141C16.7959 5.83716 17.7948 7.15787 17.4187 8.48753L16.5617 11.5176C16.2572 12.594 15.2747 13.3372 14.156 13.3372H8.03301C6.8413 13.3372 5.81527 12.496 5.58155 11.3274L4.45081 5.67373C4.37291 5.28421 4.03089 5.00382 3.63366 5.00382H3.33333C2.8731 5.00382 2.5 4.63073 2.5 4.17049ZM6.5165 7.50382L7.21586 11.0006C7.29376 11.3901 7.63577 11.6705 8.03301 11.6705H14.156C14.5289 11.6705 14.8564 11.4228 14.9579 11.064L15.815 8.0339C15.8902 7.76797 15.6904 7.50382 15.4141 7.50382H6.5165Z" fill="black"/>
</svg>
