<svg width="20" height="21" viewBox="0 0 20 21" fill="none" xmlns="http://www.w3.org/2000/svg">
<path d="M12.9167 15.108L17.0417 10.983C17.1944 10.8303 17.3889 10.7539 17.625 10.7539C17.8611 10.7539 18.0556 10.8303 18.2083 10.983C18.3611 11.1358 18.4375 11.3303 18.4375 11.5664C18.4375 11.8025 18.3611 11.9969 18.2083 12.1497L13.5 16.858C13.3333 17.0247 13.1389 17.108 12.9167 17.108C12.6944 17.108 12.5 17.0247 12.3333 16.858L9.95833 14.483C9.80556 14.3303 9.72917 14.1358 9.72917 13.8997C9.72917 13.6636 9.80556 13.4691 9.95833 13.3164C10.1111 13.1636 10.3056 13.0872 10.5417 13.0872C10.7778 13.0872 10.9722 13.1636 11.125 13.3164L12.9167 15.108ZM4.16667 18.3372C3.70833 18.3372 3.31611 18.1741 2.99 17.848C2.66389 17.5219 2.50056 17.1294 2.5 16.6705V5.00387C2.5 4.54553 2.66333 4.15331 2.99 3.8272C3.31667 3.50109 3.70889 3.33775 4.16667 3.3372H7.64583C7.79861 2.85109 8.09722 2.45192 8.54167 2.1397C8.98611 1.82748 9.47222 1.67109 10 1.67053C10.5556 1.67053 11.0522 1.82692 11.49 2.1397C11.9278 2.45248 12.2228 2.85164 12.375 3.3372H15.8333C16.2917 3.3372 16.6842 3.50053 17.0108 3.8272C17.3375 4.15387 17.5006 4.54609 17.5 5.00387V8.3372C17.5 8.57331 17.42 8.77137 17.26 8.93137C17.1 9.09137 16.9022 9.17109 16.6667 9.17053C16.4311 9.16998 16.2333 9.08998 16.0733 8.93053C15.9133 8.77109 15.8333 8.57331 15.8333 8.3372V5.00387H14.1667V6.67053C14.1667 6.90664 14.0867 7.1047 13.9267 7.2647C13.7667 7.4247 13.5689 7.50442 13.3333 7.50387H6.66667C6.43056 7.50387 6.23278 7.42387 6.07333 7.26387C5.91389 7.10387 5.83389 6.90609 5.83333 6.67053V5.00387H4.16667V16.6705H8.33333C8.56944 16.6705 8.7675 16.7505 8.9275 16.9105C9.0875 17.0705 9.16722 17.2683 9.16667 17.5039C9.16611 17.7394 9.08611 17.9375 8.92667 18.098C8.76722 18.2586 8.56944 18.3383 8.33333 18.3372H4.16667ZM10 5.00387C10.2361 5.00387 10.4342 4.92387 10.5942 4.76387C10.7542 4.60387 10.8339 4.40609 10.8333 4.17053C10.8328 3.93498 10.7528 3.7372 10.5933 3.5772C10.4339 3.4172 10.2361 3.3372 10 3.3372C9.76389 3.3372 9.56611 3.4172 9.40667 3.5772C9.24722 3.7372 9.16722 3.93498 9.16667 4.17053C9.16611 4.40609 9.24611 4.60414 9.40667 4.7647C9.56722 4.92525 9.765 5.00498 10 5.00387Z" fill="black"/>
</svg>
