<svg width="20" height="21" viewBox="0 0 20 21" fill="none" xmlns="http://www.w3.org/2000/svg">
<g clip-path="url(#clip0_42_925)">
<path d="M13.0762 12.0872H11.25C10.7096 11.677 10.1204 11.3678 9.48242 11.1594C8.8444 10.9511 8.18359 10.8437 7.5 10.8372C6.92708 10.8372 6.3737 10.912 5.83984 11.0618C5.30599 11.2115 4.80794 11.4198 4.3457 11.6868C3.88346 11.9537 3.46354 12.2792 3.08594 12.6633C2.70833 13.0474 2.38281 13.4706 2.10938 13.9329C1.83594 14.3951 1.62435 14.8931 1.47461 15.427C1.32487 15.9609 1.25 16.5142 1.25 17.0872H0C0 16.3059 0.113932 15.554 0.341797 14.8313C0.569661 14.1086 0.898438 13.4413 1.32812 12.8293C1.75781 12.2174 2.26562 11.6737 2.85156 11.1985C3.4375 10.7232 4.10156 10.3489 4.84375 10.0754C4.47917 9.84758 4.15365 9.58065 3.86719 9.27466C3.58073 8.96867 3.33333 8.63013 3.125 8.25903C2.91667 7.88794 2.76367 7.50057 2.66602 7.09692C2.56836 6.69328 2.51302 6.27336 2.5 5.83716C2.5 5.14705 2.63021 4.49927 2.89062 3.8938C3.15104 3.28833 3.50911 2.76099 3.96484 2.31177C4.42057 1.86255 4.95117 1.50448 5.55664 1.23755C6.16211 0.970622 6.8099 0.837158 7.5 0.837158C8.1901 0.837158 8.83789 0.967367 9.44336 1.22778C10.0488 1.4882 10.5762 1.84627 11.0254 2.302C11.4746 2.75773 11.8327 3.28833 12.0996 3.8938C12.3665 4.49927 12.5 5.14705 12.5 5.83716C12.5 6.26685 12.4479 6.68677 12.3438 7.09692C12.2396 7.50708 12.0833 7.89445 11.875 8.25903C11.6667 8.62362 11.4225 8.9589 11.1426 9.26489C10.8626 9.57088 10.5339 9.84106 10.1562 10.0754C10.7161 10.2838 11.2435 10.5572 11.7383 10.8958C12.2331 11.2343 12.679 11.6314 13.0762 12.0872ZM3.75 5.83716C3.75 6.35799 3.84766 6.84302 4.04297 7.29224C4.23828 7.74146 4.50521 8.13859 4.84375 8.48364C5.18229 8.82869 5.57943 9.09888 6.03516 9.29419C6.49089 9.4895 6.97917 9.58716 7.5 9.58716C8.01432 9.58716 8.49935 9.4895 8.95508 9.29419C9.41081 9.09888 9.80794 8.83195 10.1465 8.49341C10.485 8.15487 10.7552 7.75773 10.957 7.302C11.1589 6.84627 11.2565 6.35799 11.25 5.83716C11.25 5.32284 11.1523 4.83781 10.957 4.38208C10.7617 3.92635 10.4948 3.52922 10.1562 3.19067C9.81771 2.85213 9.41732 2.58195 8.95508 2.38013C8.49284 2.1783 8.00781 2.08065 7.5 2.08716C6.97917 2.08716 6.49414 2.18481 6.04492 2.38013C5.5957 2.57544 5.19857 2.84237 4.85352 3.18091C4.50846 3.51945 4.23828 3.91984 4.04297 4.38208C3.84766 4.84432 3.75 5.32935 3.75 5.83716ZM11.25 13.3372H16.6602L15.8301 12.5071L16.6699 11.6672L18.9746 13.9622L16.6699 16.2571L15.8301 15.4172L16.6602 14.5872H11.25V13.3372ZM14.1699 16.2571L13.3398 17.0872H18.75V18.3372H13.3398L14.1699 19.1672L13.3301 20.0071L11.0254 17.7122L13.3301 15.4172L14.1699 16.2571Z" fill="black" stroke="black" stroke-width="0.046875"/>
</g>
<defs>
<clipPath id="clip0_42_925">
<rect width="20" height="20" fill="white" transform="translate(0 0.837158)"/>
</clipPath>
</defs>
</svg>
