<svg width="20" height="21" viewBox="0 0 20 21" fill="none" xmlns="http://www.w3.org/2000/svg">
<path d="M5 12.5039H15C15.663 12.5039 16.2989 12.7673 16.7678 13.2361C17.2366 13.705 17.5 14.3409 17.5 15.0039C17.5 15.6669 17.2366 16.3028 16.7678 16.7717C16.2989 17.2405 15.663 17.5039 15 17.5039H5C4.33696 17.5039 3.70107 17.2405 3.23223 16.7717C2.76339 16.3028 2.5 15.6669 2.5 15.0039C2.5 14.3409 2.76339 13.705 3.23223 13.2361C3.70107 12.7673 4.33696 12.5039 5 12.5039Z" stroke="black" stroke-width="1.6"/>
<path d="M2.5 15.0039C2.5 13.8289 3.7425 8.92553 4.475 6.13553C4.65833 5.4397 4.75 5.0922 4.95167 4.8272C5.12833 4.59553 5.36833 4.41053 5.6375 4.29803C5.945 4.17053 6.30833 4.17053 7.0375 4.17053H12.9625C13.6917 4.17053 14.055 4.17053 14.3625 4.29803C14.6317 4.41053 14.8717 4.59553 15.0483 4.8272C15.25 5.0922 15.3417 5.4397 15.5242 6.13553C16.2583 8.92553 17.5 13.8289 17.5 15.0039" stroke="black" stroke-width="1.6"/>
<path d="M15.8334 15.0039C15.8334 14.5436 15.4603 14.1705 15.0001 14.1705C14.5398 14.1705 14.1667 14.5436 14.1667 15.0039C14.1667 15.4641 14.5398 15.8372 15.0001 15.8372C15.4603 15.8372 15.8334 15.4641 15.8334 15.0039Z" fill="black"/>
<path d="M6.66675 14.1705H5.00008C4.53984 14.1705 4.16675 14.5436 4.16675 15.0039C4.16675 15.4641 4.53984 15.8372 5.00008 15.8372H6.66675C7.12699 15.8372 7.50008 15.4641 7.50008 15.0039C7.50008 14.5436 7.12699 14.1705 6.66675 14.1705Z" fill="black"/>
</svg>
