<svg width="180" height="180" viewBox="0 0 180 180" fill="none" xmlns="http://www.w3.org/2000/svg">
<rect width="180" height="180" rx="90" fill="#DD0326" fill-opacity="0.11"/>
<path d="M89.2319 131C87.7573 131 86.3704 130.725 85.0713 130.176C83.7722 129.627 82.5842 128.81 81.5075 127.723L59.8922 105.965L61.9989 103.897C62.6631 103.283 63.4165 102.887 64.2592 102.71C65.0989 102.53 65.9504 102.548 66.8135 102.763L79.0322 105.805V69.0096C79.0322 68.3809 79.2428 67.8554 79.6642 67.4333C80.0855 67.0112 80.6078 66.7986 81.231 66.7957C81.8542 66.7927 82.375 67.0053 82.7934 67.4333C83.2118 67.8613 83.4196 68.3868 83.4167 69.0096V111.748L67.4543 107.395L84.6412 124.65C85.2322 125.244 85.93 125.713 86.7347 126.058C87.5393 126.404 88.3717 126.575 89.2319 126.572H105.361C108.451 126.572 111.052 125.506 113.165 123.375C115.277 121.244 116.333 118.62 116.333 115.502V97.7909C116.333 97.1621 116.544 96.6367 116.965 96.2145C117.387 95.7924 117.909 95.5799 118.532 95.5769C119.155 95.574 119.676 95.7865 120.095 96.2145C120.513 96.6426 120.722 97.168 120.722 97.7909V115.502C120.722 119.806 119.229 123.465 116.241 126.479C113.254 129.493 109.633 131 105.379 131H89.2319ZM91.4352 102.219V84.5072C91.4352 83.8785 91.6458 83.3515 92.0672 82.9265C92.4885 82.5043 93.0108 82.2933 93.634 82.2933C94.2572 82.2933 94.778 82.5058 95.1964 82.9309C95.6149 83.356 95.8241 83.8814 95.8241 84.5072V102.219H91.4352ZM103.926 102.219V88.9351C103.926 88.3063 104.137 87.7794 104.558 87.3543C104.979 86.9293 105.502 86.7182 106.125 86.7212C106.748 86.7241 107.269 86.9366 107.687 87.3588C108.106 87.7809 108.315 88.3063 108.315 88.9351V102.219H103.926ZM50.5 70.7144C53.5956 64.1404 58.7189 58.8771 65.8699 54.9245C73.0209 50.9719 80.9794 48.9971 89.7454 49C96.004 49 102.09 50.1011 108.003 52.3032C113.917 54.5053 119.787 57.8691 125.616 62.3944V51.2981H129.5V70.7144H110.259V66.7957H124.672C119.002 62.1169 113.287 58.6336 107.529 56.3459C101.771 54.0581 95.8431 52.9143 89.7454 52.9143C82.1849 52.9143 75.2767 54.5009 69.0211 57.6742C62.7655 60.8475 57.967 65.1928 54.6256 70.7099L50.5 70.7144Z" fill="black" stroke="black" stroke-width="0.25"/>
</svg>
